<mxfile host="app.diagrams.net" agent="Mozilla/5.0 (Windows NT 10.0; Win64; x64) AppleWebKit/537.36 (KHTML, like Gecko) Chrome/131.0.0.0 Safari/537.36 Edg/131.0.0.0" version="25.0.3">
  <diagram name="Page-1" id="AqJaQ5v487REorw5EvIO">
    <mxGraphModel dx="3316" dy="1062" grid="1" gridSize="10" guides="1" tooltips="1" connect="1" arrows="1" fold="1" page="1" pageScale="1" pageWidth="850" pageHeight="1100" math="0" shadow="0">
      <root>
        <mxCell id="0" />
        <mxCell id="1" parent="0" />
        <mxCell id="8rol1aNrI4AMiD5__3O6-1" value="" style="rounded=0;whiteSpace=wrap;html=1;" vertex="1" parent="1">
          <mxGeometry x="753.8000000000001" y="915.5" width="200" height="80" as="geometry" />
        </mxCell>
        <mxCell id="8rol1aNrI4AMiD5__3O6-2" value="" style="endArrow=none;html=1;rounded=0;" edge="1" parent="1" target="8rol1aNrI4AMiD5__3O6-1">
          <mxGeometry width="50" height="50" relative="1" as="geometry">
            <mxPoint x="753.8000000000001" y="935.5" as="sourcePoint" />
            <mxPoint x="803.8000000000001" y="885.5" as="targetPoint" />
            <Array as="points">
              <mxPoint x="953.8000000000001" y="935.5" />
            </Array>
          </mxGeometry>
        </mxCell>
        <mxCell id="8rol1aNrI4AMiD5__3O6-3" value="" style="endArrow=none;html=1;rounded=0;" edge="1" parent="1">
          <mxGeometry width="50" height="50" relative="1" as="geometry">
            <mxPoint x="753.8000000000001" y="970" as="sourcePoint" />
            <mxPoint x="953.8000000000001" y="970" as="targetPoint" />
            <Array as="points">
              <mxPoint x="953.8000000000001" y="970" />
            </Array>
          </mxGeometry>
        </mxCell>
        <mxCell id="8rol1aNrI4AMiD5__3O6-4" value="" style="endArrow=none;html=1;rounded=0;" edge="1" parent="1">
          <mxGeometry width="50" height="50" relative="1" as="geometry">
            <mxPoint x="783.8000000000001" y="995.5" as="sourcePoint" />
            <mxPoint x="783.8000000000001" y="935.5" as="targetPoint" />
          </mxGeometry>
        </mxCell>
        <mxCell id="8rol1aNrI4AMiD5__3O6-5" value="&lt;b&gt;&lt;font style=&quot;font-size: 14px;&quot;&gt;country&lt;/font&gt;&lt;/b&gt;" style="text;html=1;align=center;verticalAlign=middle;whiteSpace=wrap;rounded=0;" vertex="1" parent="1">
          <mxGeometry x="753.8000000000001" y="915.5" width="70" height="20" as="geometry" />
        </mxCell>
        <mxCell id="8rol1aNrI4AMiD5__3O6-6" value="country_id" style="text;html=1;align=center;verticalAlign=middle;whiteSpace=wrap;rounded=0;" vertex="1" parent="1">
          <mxGeometry x="793.8000000000001" y="945.5" width="50" height="20" as="geometry" />
        </mxCell>
        <mxCell id="8rol1aNrI4AMiD5__3O6-8" value="country_name" style="text;html=1;align=center;verticalAlign=middle;whiteSpace=wrap;rounded=0;" vertex="1" parent="1">
          <mxGeometry x="803.8000000000001" y="975.5" width="50" height="20" as="geometry" />
        </mxCell>
        <mxCell id="8rol1aNrI4AMiD5__3O6-9" value="" style="image;sketch=0;aspect=fixed;html=1;points=[];align=center;fontSize=12;image=img/lib/mscae/Key.svg;" vertex="1" parent="1">
          <mxGeometry x="763.8000000000001" y="945.5" width="12.4" height="20" as="geometry" />
        </mxCell>
        <mxCell id="8rol1aNrI4AMiD5__3O6-10" value="" style="rounded=0;whiteSpace=wrap;html=1;" vertex="1" parent="1">
          <mxGeometry x="241.20000000000005" y="1111.5" width="200" height="80" as="geometry" />
        </mxCell>
        <mxCell id="8rol1aNrI4AMiD5__3O6-11" value="" style="endArrow=none;html=1;rounded=0;" edge="1" parent="1" target="8rol1aNrI4AMiD5__3O6-10">
          <mxGeometry width="50" height="50" relative="1" as="geometry">
            <mxPoint x="241.20000000000005" y="1131.5" as="sourcePoint" />
            <mxPoint x="291.20000000000005" y="1081.5" as="targetPoint" />
            <Array as="points">
              <mxPoint x="441.20000000000005" y="1131.5" />
            </Array>
          </mxGeometry>
        </mxCell>
        <mxCell id="8rol1aNrI4AMiD5__3O6-12" value="" style="endArrow=none;html=1;rounded=0;" edge="1" parent="1">
          <mxGeometry width="50" height="50" relative="1" as="geometry">
            <mxPoint x="241.20000000000005" y="1166" as="sourcePoint" />
            <mxPoint x="441.20000000000005" y="1166" as="targetPoint" />
            <Array as="points">
              <mxPoint x="441.20000000000005" y="1166" />
            </Array>
          </mxGeometry>
        </mxCell>
        <mxCell id="8rol1aNrI4AMiD5__3O6-13" value="" style="endArrow=none;html=1;rounded=0;" edge="1" parent="1">
          <mxGeometry width="50" height="50" relative="1" as="geometry">
            <mxPoint x="271.20000000000005" y="1191.5" as="sourcePoint" />
            <mxPoint x="271.20000000000005" y="1131.5" as="targetPoint" />
          </mxGeometry>
        </mxCell>
        <mxCell id="8rol1aNrI4AMiD5__3O6-14" value="&lt;b&gt;&lt;font style=&quot;font-size: 14px;&quot;&gt;address_status&lt;/font&gt;&lt;/b&gt;" style="text;html=1;align=center;verticalAlign=middle;whiteSpace=wrap;rounded=0;" vertex="1" parent="1">
          <mxGeometry x="263.5999999999999" y="1111.5" width="70" height="20" as="geometry" />
        </mxCell>
        <mxCell id="8rol1aNrI4AMiD5__3O6-15" value="status_id" style="text;html=1;align=center;verticalAlign=middle;whiteSpace=wrap;rounded=0;" vertex="1" parent="1">
          <mxGeometry x="281.20000000000005" y="1141.5" width="50" height="20" as="geometry" />
        </mxCell>
        <mxCell id="8rol1aNrI4AMiD5__3O6-16" value="&lt;font style=&quot;font-size: 12px;&quot;&gt;address_status&lt;/font&gt;" style="text;html=1;align=center;verticalAlign=middle;whiteSpace=wrap;rounded=0;" vertex="1" parent="1">
          <mxGeometry x="291.20000000000005" y="1171.5" width="50" height="20" as="geometry" />
        </mxCell>
        <mxCell id="8rol1aNrI4AMiD5__3O6-17" value="" style="image;sketch=0;aspect=fixed;html=1;points=[];align=center;fontSize=12;image=img/lib/mscae/Key.svg;" vertex="1" parent="1">
          <mxGeometry x="251.20000000000005" y="1141.5" width="12.4" height="20" as="geometry" />
        </mxCell>
        <mxCell id="8rol1aNrI4AMiD5__3O6-19" value="" style="rounded=0;whiteSpace=wrap;html=1;" vertex="1" parent="1">
          <mxGeometry x="856.2" y="1095.5" width="197.6" height="180" as="geometry" />
        </mxCell>
        <mxCell id="8rol1aNrI4AMiD5__3O6-20" value="" style="endArrow=none;html=1;rounded=0;" edge="1" parent="1" target="8rol1aNrI4AMiD5__3O6-19">
          <mxGeometry width="50" height="50" relative="1" as="geometry">
            <mxPoint x="856.2" y="1115.5" as="sourcePoint" />
            <mxPoint x="906.2" y="1065.5" as="targetPoint" />
            <Array as="points">
              <mxPoint x="1056.2" y="1115.5" />
            </Array>
          </mxGeometry>
        </mxCell>
        <mxCell id="8rol1aNrI4AMiD5__3O6-21" value="" style="endArrow=none;html=1;rounded=0;" edge="1" parent="1">
          <mxGeometry width="50" height="50" relative="1" as="geometry">
            <mxPoint x="856.2" y="1150" as="sourcePoint" />
            <mxPoint x="1056.2" y="1150" as="targetPoint" />
            <Array as="points">
              <mxPoint x="1056.2" y="1150" />
            </Array>
          </mxGeometry>
        </mxCell>
        <mxCell id="8rol1aNrI4AMiD5__3O6-22" value="" style="endArrow=none;html=1;rounded=0;exitX=0.151;exitY=1.025;exitDx=0;exitDy=0;exitPerimeter=0;" edge="1" parent="1" source="8rol1aNrI4AMiD5__3O6-19">
          <mxGeometry width="50" height="50" relative="1" as="geometry">
            <mxPoint x="886.2" y="1175.5" as="sourcePoint" />
            <mxPoint x="886.2" y="1115.5" as="targetPoint" />
          </mxGeometry>
        </mxCell>
        <mxCell id="8rol1aNrI4AMiD5__3O6-23" value="&lt;div&gt;&lt;b style=&quot;background-color: initial;&quot;&gt;&lt;font style=&quot;font-size: 14px;&quot;&gt;address&lt;/font&gt;&lt;/b&gt;&lt;/div&gt;" style="text;html=1;align=center;verticalAlign=middle;whiteSpace=wrap;rounded=0;" vertex="1" parent="1">
          <mxGeometry x="863.8" y="1095.5" width="70" height="20" as="geometry" />
        </mxCell>
        <mxCell id="8rol1aNrI4AMiD5__3O6-24" value="address_id" style="text;html=1;align=center;verticalAlign=middle;whiteSpace=wrap;rounded=0;" vertex="1" parent="1">
          <mxGeometry x="903.8" y="1125.5" width="50" height="20" as="geometry" />
        </mxCell>
        <mxCell id="8rol1aNrI4AMiD5__3O6-25" value="&lt;font style=&quot;font-size: 12px;&quot;&gt;street_number&lt;/font&gt;" style="text;html=1;align=center;verticalAlign=middle;whiteSpace=wrap;rounded=0;" vertex="1" parent="1">
          <mxGeometry x="908.8" y="1155.5" width="50" height="20" as="geometry" />
        </mxCell>
        <mxCell id="8rol1aNrI4AMiD5__3O6-26" value="" style="image;sketch=0;aspect=fixed;html=1;points=[];align=center;fontSize=12;image=img/lib/mscae/Key.svg;" vertex="1" parent="1">
          <mxGeometry x="866.2" y="1125.5" width="12.4" height="20" as="geometry" />
        </mxCell>
        <mxCell id="8rol1aNrI4AMiD5__3O6-27" value="" style="endArrow=none;html=1;rounded=0;" edge="1" parent="1">
          <mxGeometry width="50" height="50" relative="1" as="geometry">
            <mxPoint x="856.2" y="1185.5" as="sourcePoint" />
            <mxPoint x="1056.2" y="1185.5" as="targetPoint" />
            <Array as="points">
              <mxPoint x="1056.2" y="1185.5" />
            </Array>
          </mxGeometry>
        </mxCell>
        <mxCell id="8rol1aNrI4AMiD5__3O6-29" value="street_name" style="text;html=1;align=center;verticalAlign=middle;whiteSpace=wrap;rounded=0;" vertex="1" parent="1">
          <mxGeometry x="903.8" y="1195.5" width="50" height="20" as="geometry" />
        </mxCell>
        <mxCell id="8rol1aNrI4AMiD5__3O6-30" value="" style="rounded=0;whiteSpace=wrap;html=1;" vertex="1" parent="1">
          <mxGeometry x="476.2" y="935.5" width="200" height="130" as="geometry" />
        </mxCell>
        <mxCell id="8rol1aNrI4AMiD5__3O6-31" value="" style="endArrow=none;html=1;rounded=0;" edge="1" parent="1" target="8rol1aNrI4AMiD5__3O6-30">
          <mxGeometry width="50" height="50" relative="1" as="geometry">
            <mxPoint x="476.2" y="955.5" as="sourcePoint" />
            <mxPoint x="526.2" y="905.5" as="targetPoint" />
            <Array as="points">
              <mxPoint x="676.1999999999999" y="955.5" />
            </Array>
          </mxGeometry>
        </mxCell>
        <mxCell id="8rol1aNrI4AMiD5__3O6-32" value="" style="endArrow=none;html=1;rounded=0;" edge="1" parent="1">
          <mxGeometry width="50" height="50" relative="1" as="geometry">
            <mxPoint x="476.2" y="990" as="sourcePoint" />
            <mxPoint x="676.1999999999999" y="990" as="targetPoint" />
            <Array as="points">
              <mxPoint x="676.1999999999999" y="990" />
            </Array>
          </mxGeometry>
        </mxCell>
        <mxCell id="8rol1aNrI4AMiD5__3O6-33" value="" style="endArrow=none;html=1;rounded=0;exitX=0.151;exitY=1.025;exitDx=0;exitDy=0;exitPerimeter=0;" edge="1" parent="1" source="8rol1aNrI4AMiD5__3O6-30">
          <mxGeometry width="50" height="50" relative="1" as="geometry">
            <mxPoint x="506.2" y="1015.5" as="sourcePoint" />
            <mxPoint x="506.2" y="955.5" as="targetPoint" />
          </mxGeometry>
        </mxCell>
        <mxCell id="8rol1aNrI4AMiD5__3O6-34" value="&lt;b&gt;&lt;font style=&quot;font-size: 14px;&quot;&gt;customer_address&lt;/font&gt;&lt;/b&gt;" style="text;html=1;align=center;verticalAlign=middle;whiteSpace=wrap;rounded=0;" vertex="1" parent="1">
          <mxGeometry x="506.19999999999993" y="935.5" width="70" height="20" as="geometry" />
        </mxCell>
        <mxCell id="8rol1aNrI4AMiD5__3O6-35" value="customer_id" style="text;html=1;align=center;verticalAlign=middle;whiteSpace=wrap;rounded=0;" vertex="1" parent="1">
          <mxGeometry x="523.8" y="965.5" width="50" height="20" as="geometry" />
        </mxCell>
        <mxCell id="8rol1aNrI4AMiD5__3O6-36" value="&lt;font style=&quot;font-size: 12px;&quot;&gt;address_id&lt;/font&gt;" style="text;html=1;align=center;verticalAlign=middle;whiteSpace=wrap;rounded=0;" vertex="1" parent="1">
          <mxGeometry x="518.6" y="995.5" width="50" height="20" as="geometry" />
        </mxCell>
        <mxCell id="8rol1aNrI4AMiD5__3O6-37" value="" style="image;sketch=0;aspect=fixed;html=1;points=[];align=center;fontSize=12;image=img/lib/mscae/Key.svg;" vertex="1" parent="1">
          <mxGeometry x="486.2" y="965.5" width="12.4" height="20" as="geometry" />
        </mxCell>
        <mxCell id="8rol1aNrI4AMiD5__3O6-38" value="" style="endArrow=none;html=1;rounded=0;" edge="1" parent="1">
          <mxGeometry width="50" height="50" relative="1" as="geometry">
            <mxPoint x="476.2" y="1025.5" as="sourcePoint" />
            <mxPoint x="676.1999999999999" y="1025.5" as="targetPoint" />
            <Array as="points">
              <mxPoint x="676.1999999999999" y="1025.5" />
            </Array>
          </mxGeometry>
        </mxCell>
        <mxCell id="8rol1aNrI4AMiD5__3O6-39" value="" style="image;sketch=0;aspect=fixed;html=1;points=[];align=center;fontSize=12;image=img/lib/mscae/Key.svg;" vertex="1" parent="1">
          <mxGeometry x="486.2" y="995.5" width="12.4" height="20" as="geometry" />
        </mxCell>
        <mxCell id="8rol1aNrI4AMiD5__3O6-40" value="status_id" style="text;html=1;align=center;verticalAlign=middle;whiteSpace=wrap;rounded=0;" vertex="1" parent="1">
          <mxGeometry x="516.2" y="1035.5" width="50" height="20" as="geometry" />
        </mxCell>
        <mxCell id="8rol1aNrI4AMiD5__3O6-41" value="" style="endArrow=none;html=1;rounded=0;" edge="1" parent="1">
          <mxGeometry width="50" height="50" relative="1" as="geometry">
            <mxPoint x="856.2" y="1215.5" as="sourcePoint" />
            <mxPoint x="1056.2" y="1215.5" as="targetPoint" />
            <Array as="points">
              <mxPoint x="1056.2" y="1215.5" />
            </Array>
          </mxGeometry>
        </mxCell>
        <mxCell id="8rol1aNrI4AMiD5__3O6-42" value="" style="endArrow=none;html=1;rounded=0;" edge="1" parent="1">
          <mxGeometry width="50" height="50" relative="1" as="geometry">
            <mxPoint x="856.2" y="1245.5" as="sourcePoint" />
            <mxPoint x="1056.2" y="1245.5" as="targetPoint" />
            <Array as="points">
              <mxPoint x="1056.2" y="1245.5" />
            </Array>
          </mxGeometry>
        </mxCell>
        <mxCell id="8rol1aNrI4AMiD5__3O6-43" value="city" style="text;html=1;align=center;verticalAlign=middle;whiteSpace=wrap;rounded=0;" vertex="1" parent="1">
          <mxGeometry x="893.8" y="1225.5" width="30" height="20" as="geometry" />
        </mxCell>
        <mxCell id="8rol1aNrI4AMiD5__3O6-44" value="country_id" style="text;html=1;align=center;verticalAlign=middle;whiteSpace=wrap;rounded=0;" vertex="1" parent="1">
          <mxGeometry x="903.8" y="1255.5" width="50" height="20" as="geometry" />
        </mxCell>
        <mxCell id="8rol1aNrI4AMiD5__3O6-83" value="" style="rounded=0;whiteSpace=wrap;html=1;" vertex="1" parent="1">
          <mxGeometry x="561.2" y="1091.5" width="197.6" height="154" as="geometry" />
        </mxCell>
        <mxCell id="8rol1aNrI4AMiD5__3O6-84" value="" style="endArrow=none;html=1;rounded=0;" edge="1" parent="1" target="8rol1aNrI4AMiD5__3O6-83">
          <mxGeometry width="50" height="50" relative="1" as="geometry">
            <mxPoint x="561.2" y="1111.5" as="sourcePoint" />
            <mxPoint x="611.2" y="1061.5" as="targetPoint" />
            <Array as="points">
              <mxPoint x="761.2" y="1111.5" />
            </Array>
          </mxGeometry>
        </mxCell>
        <mxCell id="8rol1aNrI4AMiD5__3O6-85" value="" style="endArrow=none;html=1;rounded=0;" edge="1" parent="1">
          <mxGeometry width="50" height="50" relative="1" as="geometry">
            <mxPoint x="561.2" y="1146" as="sourcePoint" />
            <mxPoint x="761.2" y="1146" as="targetPoint" />
            <Array as="points">
              <mxPoint x="761.2" y="1146" />
            </Array>
          </mxGeometry>
        </mxCell>
        <mxCell id="8rol1aNrI4AMiD5__3O6-86" value="" style="endArrow=none;html=1;rounded=0;exitX=0.151;exitY=1.025;exitDx=0;exitDy=0;exitPerimeter=0;" edge="1" parent="1" source="8rol1aNrI4AMiD5__3O6-83">
          <mxGeometry width="50" height="50" relative="1" as="geometry">
            <mxPoint x="591.2" y="1171.5" as="sourcePoint" />
            <mxPoint x="591.2" y="1111.5" as="targetPoint" />
          </mxGeometry>
        </mxCell>
        <mxCell id="8rol1aNrI4AMiD5__3O6-87" value="&lt;div&gt;&lt;b style=&quot;background-color: initial;&quot;&gt;&lt;font style=&quot;font-size: 14px;&quot;&gt;customer&lt;/font&gt;&lt;/b&gt;&lt;/div&gt;" style="text;html=1;align=center;verticalAlign=middle;whiteSpace=wrap;rounded=0;" vertex="1" parent="1">
          <mxGeometry x="568.8" y="1091.5" width="70" height="20" as="geometry" />
        </mxCell>
        <mxCell id="8rol1aNrI4AMiD5__3O6-88" value="customer_id" style="text;html=1;align=center;verticalAlign=middle;whiteSpace=wrap;rounded=0;" vertex="1" parent="1">
          <mxGeometry x="608.8" y="1121.5" width="50" height="20" as="geometry" />
        </mxCell>
        <mxCell id="8rol1aNrI4AMiD5__3O6-89" value="&lt;font style=&quot;font-size: 12px;&quot;&gt;first_name&lt;/font&gt;" style="text;html=1;align=center;verticalAlign=middle;whiteSpace=wrap;rounded=0;" vertex="1" parent="1">
          <mxGeometry x="598.8" y="1155.5" width="50" height="20" as="geometry" />
        </mxCell>
        <mxCell id="8rol1aNrI4AMiD5__3O6-90" value="" style="image;sketch=0;aspect=fixed;html=1;points=[];align=center;fontSize=12;image=img/lib/mscae/Key.svg;" vertex="1" parent="1">
          <mxGeometry x="571.2" y="1121.5" width="12.4" height="20" as="geometry" />
        </mxCell>
        <mxCell id="8rol1aNrI4AMiD5__3O6-91" value="" style="endArrow=none;html=1;rounded=0;" edge="1" parent="1">
          <mxGeometry width="50" height="50" relative="1" as="geometry">
            <mxPoint x="561.2" y="1181.5" as="sourcePoint" />
            <mxPoint x="761.2" y="1181.5" as="targetPoint" />
            <Array as="points">
              <mxPoint x="761.2" y="1181.5" />
            </Array>
          </mxGeometry>
        </mxCell>
        <mxCell id="8rol1aNrI4AMiD5__3O6-92" value="last_name" style="text;html=1;align=center;verticalAlign=middle;whiteSpace=wrap;rounded=0;" vertex="1" parent="1">
          <mxGeometry x="598.8" y="1191.5" width="50" height="20" as="geometry" />
        </mxCell>
        <mxCell id="8rol1aNrI4AMiD5__3O6-93" value="" style="endArrow=none;html=1;rounded=0;" edge="1" parent="1">
          <mxGeometry width="50" height="50" relative="1" as="geometry">
            <mxPoint x="561.2" y="1211.5" as="sourcePoint" />
            <mxPoint x="761.2" y="1211.5" as="targetPoint" />
            <Array as="points">
              <mxPoint x="761.2" y="1211.5" />
            </Array>
          </mxGeometry>
        </mxCell>
        <mxCell id="8rol1aNrI4AMiD5__3O6-95" value="email" style="text;html=1;align=center;verticalAlign=middle;whiteSpace=wrap;rounded=0;" vertex="1" parent="1">
          <mxGeometry x="598.8" y="1221.5" width="30" height="20" as="geometry" />
        </mxCell>
        <mxCell id="8rol1aNrI4AMiD5__3O6-98" value="" style="rounded=0;whiteSpace=wrap;html=1;" vertex="1" parent="1">
          <mxGeometry x="930" y="1417" width="200" height="80" as="geometry" />
        </mxCell>
        <mxCell id="8rol1aNrI4AMiD5__3O6-99" value="" style="endArrow=none;html=1;rounded=0;" edge="1" parent="1" target="8rol1aNrI4AMiD5__3O6-98">
          <mxGeometry width="50" height="50" relative="1" as="geometry">
            <mxPoint x="930" y="1437" as="sourcePoint" />
            <mxPoint x="980" y="1387" as="targetPoint" />
            <Array as="points">
              <mxPoint x="1130" y="1437" />
            </Array>
          </mxGeometry>
        </mxCell>
        <mxCell id="8rol1aNrI4AMiD5__3O6-100" value="" style="endArrow=none;html=1;rounded=0;" edge="1" parent="1">
          <mxGeometry width="50" height="50" relative="1" as="geometry">
            <mxPoint x="930" y="1471.5" as="sourcePoint" />
            <mxPoint x="1130" y="1471.5" as="targetPoint" />
            <Array as="points">
              <mxPoint x="1130" y="1471.5" />
            </Array>
          </mxGeometry>
        </mxCell>
        <mxCell id="8rol1aNrI4AMiD5__3O6-101" value="" style="endArrow=none;html=1;rounded=0;" edge="1" parent="1">
          <mxGeometry width="50" height="50" relative="1" as="geometry">
            <mxPoint x="960" y="1497" as="sourcePoint" />
            <mxPoint x="960" y="1437" as="targetPoint" />
          </mxGeometry>
        </mxCell>
        <mxCell id="8rol1aNrI4AMiD5__3O6-102" value="&lt;b&gt;&lt;font style=&quot;font-size: 14px;&quot;&gt;order_status&lt;/font&gt;&lt;/b&gt;" style="text;html=1;align=center;verticalAlign=middle;whiteSpace=wrap;rounded=0;" vertex="1" parent="1">
          <mxGeometry x="950" y="1417" width="70" height="20" as="geometry" />
        </mxCell>
        <mxCell id="8rol1aNrI4AMiD5__3O6-103" value="status_id" style="text;html=1;align=center;verticalAlign=middle;whiteSpace=wrap;rounded=0;" vertex="1" parent="1">
          <mxGeometry x="970" y="1447" width="50" height="20" as="geometry" />
        </mxCell>
        <mxCell id="8rol1aNrI4AMiD5__3O6-104" value="status_value" style="text;html=1;align=center;verticalAlign=middle;whiteSpace=wrap;rounded=0;" vertex="1" parent="1">
          <mxGeometry x="980" y="1477" width="50" height="20" as="geometry" />
        </mxCell>
        <mxCell id="8rol1aNrI4AMiD5__3O6-105" value="" style="image;sketch=0;aspect=fixed;html=1;points=[];align=center;fontSize=12;image=img/lib/mscae/Key.svg;" vertex="1" parent="1">
          <mxGeometry x="940" y="1447" width="12.4" height="20" as="geometry" />
        </mxCell>
        <mxCell id="8rol1aNrI4AMiD5__3O6-106" value="" style="rounded=0;whiteSpace=wrap;html=1;" vertex="1" parent="1">
          <mxGeometry x="930" y="1611.75" width="197.6" height="154" as="geometry" />
        </mxCell>
        <mxCell id="8rol1aNrI4AMiD5__3O6-107" value="" style="endArrow=none;html=1;rounded=0;" edge="1" parent="1" target="8rol1aNrI4AMiD5__3O6-106">
          <mxGeometry width="50" height="50" relative="1" as="geometry">
            <mxPoint x="930" y="1631.75" as="sourcePoint" />
            <mxPoint x="980" y="1581.75" as="targetPoint" />
            <Array as="points">
              <mxPoint x="1130" y="1631.75" />
            </Array>
          </mxGeometry>
        </mxCell>
        <mxCell id="8rol1aNrI4AMiD5__3O6-108" value="" style="endArrow=none;html=1;rounded=0;" edge="1" parent="1">
          <mxGeometry width="50" height="50" relative="1" as="geometry">
            <mxPoint x="930" y="1666.25" as="sourcePoint" />
            <mxPoint x="1130" y="1666.25" as="targetPoint" />
            <Array as="points">
              <mxPoint x="1130" y="1666.25" />
            </Array>
          </mxGeometry>
        </mxCell>
        <mxCell id="8rol1aNrI4AMiD5__3O6-109" value="" style="endArrow=none;html=1;rounded=0;" edge="1" parent="1">
          <mxGeometry width="50" height="50" relative="1" as="geometry">
            <mxPoint x="959.8" y="1770.67" as="sourcePoint" />
            <mxPoint x="960" y="1631.75" as="targetPoint" />
          </mxGeometry>
        </mxCell>
        <mxCell id="8rol1aNrI4AMiD5__3O6-110" value="&lt;div&gt;&lt;b style=&quot;background-color: initial;&quot;&gt;&lt;font style=&quot;font-size: 14px;&quot;&gt;order_history&lt;/font&gt;&lt;/b&gt;&lt;/div&gt;" style="text;html=1;align=center;verticalAlign=middle;whiteSpace=wrap;rounded=0;" vertex="1" parent="1">
          <mxGeometry x="951.1999999999999" y="1611.75" width="70" height="20" as="geometry" />
        </mxCell>
        <mxCell id="8rol1aNrI4AMiD5__3O6-111" value="history_id" style="text;html=1;align=center;verticalAlign=middle;whiteSpace=wrap;rounded=0;" vertex="1" parent="1">
          <mxGeometry x="971.1999999999999" y="1640.6699999999998" width="50" height="20" as="geometry" />
        </mxCell>
        <mxCell id="8rol1aNrI4AMiD5__3O6-112" value="&lt;font style=&quot;font-size: 12px;&quot;&gt;order_id&lt;/font&gt;" style="text;html=1;align=center;verticalAlign=middle;whiteSpace=wrap;rounded=0;" vertex="1" parent="1">
          <mxGeometry x="967.6" y="1675.75" width="50" height="20" as="geometry" />
        </mxCell>
        <mxCell id="8rol1aNrI4AMiD5__3O6-113" value="" style="image;sketch=0;aspect=fixed;html=1;points=[];align=center;fontSize=12;image=img/lib/mscae/Key.svg;" vertex="1" parent="1">
          <mxGeometry x="940" y="1641.75" width="12.4" height="20" as="geometry" />
        </mxCell>
        <mxCell id="8rol1aNrI4AMiD5__3O6-114" value="" style="endArrow=none;html=1;rounded=0;" edge="1" parent="1">
          <mxGeometry width="50" height="50" relative="1" as="geometry">
            <mxPoint x="930" y="1701.75" as="sourcePoint" />
            <mxPoint x="1130" y="1701.75" as="targetPoint" />
            <Array as="points">
              <mxPoint x="1130" y="1701.75" />
            </Array>
          </mxGeometry>
        </mxCell>
        <mxCell id="8rol1aNrI4AMiD5__3O6-115" value="status_id" style="text;html=1;align=center;verticalAlign=middle;whiteSpace=wrap;rounded=0;" vertex="1" parent="1">
          <mxGeometry x="967.6" y="1711.75" width="50" height="20" as="geometry" />
        </mxCell>
        <mxCell id="8rol1aNrI4AMiD5__3O6-116" value="" style="endArrow=none;html=1;rounded=0;" edge="1" parent="1">
          <mxGeometry width="50" height="50" relative="1" as="geometry">
            <mxPoint x="930" y="1731.75" as="sourcePoint" />
            <mxPoint x="1130" y="1731.75" as="targetPoint" />
            <Array as="points">
              <mxPoint x="1130" y="1731.75" />
            </Array>
          </mxGeometry>
        </mxCell>
        <mxCell id="8rol1aNrI4AMiD5__3O6-117" value="status_date" style="text;html=1;align=center;verticalAlign=middle;whiteSpace=wrap;rounded=0;" vertex="1" parent="1">
          <mxGeometry x="983.8" y="1741.75" width="30" height="20" as="geometry" />
        </mxCell>
        <mxCell id="8rol1aNrI4AMiD5__3O6-118" value="" style="rounded=0;whiteSpace=wrap;html=1;" vertex="1" parent="1">
          <mxGeometry x="670" y="1481.75" width="197.6" height="180" as="geometry" />
        </mxCell>
        <mxCell id="8rol1aNrI4AMiD5__3O6-119" value="" style="endArrow=none;html=1;rounded=0;" edge="1" parent="1" target="8rol1aNrI4AMiD5__3O6-118">
          <mxGeometry width="50" height="50" relative="1" as="geometry">
            <mxPoint x="670" y="1501.75" as="sourcePoint" />
            <mxPoint x="720" y="1451.75" as="targetPoint" />
            <Array as="points">
              <mxPoint x="870" y="1501.75" />
            </Array>
          </mxGeometry>
        </mxCell>
        <mxCell id="8rol1aNrI4AMiD5__3O6-120" value="" style="endArrow=none;html=1;rounded=0;" edge="1" parent="1">
          <mxGeometry width="50" height="50" relative="1" as="geometry">
            <mxPoint x="670" y="1536.25" as="sourcePoint" />
            <mxPoint x="870" y="1536.25" as="targetPoint" />
            <Array as="points">
              <mxPoint x="870" y="1536.25" />
            </Array>
          </mxGeometry>
        </mxCell>
        <mxCell id="8rol1aNrI4AMiD5__3O6-121" value="" style="endArrow=none;html=1;rounded=0;exitX=0.151;exitY=1.025;exitDx=0;exitDy=0;exitPerimeter=0;" edge="1" parent="1" source="8rol1aNrI4AMiD5__3O6-118">
          <mxGeometry width="50" height="50" relative="1" as="geometry">
            <mxPoint x="700" y="1561.75" as="sourcePoint" />
            <mxPoint x="700" y="1501.75" as="targetPoint" />
          </mxGeometry>
        </mxCell>
        <mxCell id="8rol1aNrI4AMiD5__3O6-122" value="&lt;div&gt;&lt;b style=&quot;background-color: initial;&quot;&gt;&lt;font style=&quot;font-size: 14px;&quot;&gt;cust_order&lt;/font&gt;&lt;/b&gt;&lt;/div&gt;" style="text;html=1;align=center;verticalAlign=middle;whiteSpace=wrap;rounded=0;" vertex="1" parent="1">
          <mxGeometry x="677.5999999999999" y="1481.75" width="70" height="20" as="geometry" />
        </mxCell>
        <mxCell id="8rol1aNrI4AMiD5__3O6-123" value="order_id" style="text;html=1;align=center;verticalAlign=middle;whiteSpace=wrap;rounded=0;" vertex="1" parent="1">
          <mxGeometry x="717.6" y="1511.75" width="50" height="20" as="geometry" />
        </mxCell>
        <mxCell id="8rol1aNrI4AMiD5__3O6-124" value="&lt;font style=&quot;font-size: 12px;&quot;&gt;order_date&lt;/font&gt;" style="text;html=1;align=center;verticalAlign=middle;whiteSpace=wrap;rounded=0;" vertex="1" parent="1">
          <mxGeometry x="722.6" y="1541.75" width="50" height="20" as="geometry" />
        </mxCell>
        <mxCell id="8rol1aNrI4AMiD5__3O6-125" value="" style="image;sketch=0;aspect=fixed;html=1;points=[];align=center;fontSize=12;image=img/lib/mscae/Key.svg;" vertex="1" parent="1">
          <mxGeometry x="680" y="1511.75" width="12.4" height="20" as="geometry" />
        </mxCell>
        <mxCell id="8rol1aNrI4AMiD5__3O6-126" value="" style="endArrow=none;html=1;rounded=0;" edge="1" parent="1">
          <mxGeometry width="50" height="50" relative="1" as="geometry">
            <mxPoint x="670" y="1571.75" as="sourcePoint" />
            <mxPoint x="870" y="1571.75" as="targetPoint" />
            <Array as="points">
              <mxPoint x="870" y="1571.75" />
            </Array>
          </mxGeometry>
        </mxCell>
        <mxCell id="8rol1aNrI4AMiD5__3O6-127" value="customer_id" style="text;html=1;align=center;verticalAlign=middle;whiteSpace=wrap;rounded=0;" vertex="1" parent="1">
          <mxGeometry x="722.6" y="1581.75" width="50" height="20" as="geometry" />
        </mxCell>
        <mxCell id="8rol1aNrI4AMiD5__3O6-128" value="" style="endArrow=none;html=1;rounded=0;" edge="1" parent="1">
          <mxGeometry width="50" height="50" relative="1" as="geometry">
            <mxPoint x="670" y="1601.75" as="sourcePoint" />
            <mxPoint x="870" y="1601.75" as="targetPoint" />
            <Array as="points">
              <mxPoint x="870" y="1601.75" />
            </Array>
          </mxGeometry>
        </mxCell>
        <mxCell id="8rol1aNrI4AMiD5__3O6-129" value="" style="endArrow=none;html=1;rounded=0;" edge="1" parent="1">
          <mxGeometry width="50" height="50" relative="1" as="geometry">
            <mxPoint x="670" y="1631.75" as="sourcePoint" />
            <mxPoint x="870" y="1631.75" as="targetPoint" />
            <Array as="points">
              <mxPoint x="870" y="1631.75" />
            </Array>
          </mxGeometry>
        </mxCell>
        <mxCell id="8rol1aNrI4AMiD5__3O6-130" value="shipping_method_id" style="text;html=1;align=center;verticalAlign=middle;whiteSpace=wrap;rounded=0;" vertex="1" parent="1">
          <mxGeometry x="751.2" y="1611.75" width="30" height="20" as="geometry" />
        </mxCell>
        <mxCell id="8rol1aNrI4AMiD5__3O6-131" value="dest_address_id" style="text;html=1;align=center;verticalAlign=middle;whiteSpace=wrap;rounded=0;" vertex="1" parent="1">
          <mxGeometry x="735" y="1641.75" width="50" height="20" as="geometry" />
        </mxCell>
        <mxCell id="8rol1aNrI4AMiD5__3O6-133" value="" style="rounded=0;whiteSpace=wrap;html=1;" vertex="1" parent="1">
          <mxGeometry x="650" y="1740" width="200" height="108.92" as="geometry" />
        </mxCell>
        <mxCell id="8rol1aNrI4AMiD5__3O6-134" value="" style="endArrow=none;html=1;rounded=0;" edge="1" parent="1" target="8rol1aNrI4AMiD5__3O6-133">
          <mxGeometry width="50" height="50" relative="1" as="geometry">
            <mxPoint x="650" y="1760" as="sourcePoint" />
            <mxPoint x="700" y="1710" as="targetPoint" />
            <Array as="points">
              <mxPoint x="850" y="1760" />
            </Array>
          </mxGeometry>
        </mxCell>
        <mxCell id="8rol1aNrI4AMiD5__3O6-135" value="" style="endArrow=none;html=1;rounded=0;" edge="1" parent="1">
          <mxGeometry width="50" height="50" relative="1" as="geometry">
            <mxPoint x="650" y="1794.5" as="sourcePoint" />
            <mxPoint x="850" y="1794.5" as="targetPoint" />
            <Array as="points">
              <mxPoint x="850" y="1794.5" />
            </Array>
          </mxGeometry>
        </mxCell>
        <mxCell id="8rol1aNrI4AMiD5__3O6-136" value="" style="endArrow=none;html=1;rounded=0;exitX=0.151;exitY=1.025;exitDx=0;exitDy=0;exitPerimeter=0;" edge="1" parent="1" source="8rol1aNrI4AMiD5__3O6-133">
          <mxGeometry width="50" height="50" relative="1" as="geometry">
            <mxPoint x="680" y="1820" as="sourcePoint" />
            <mxPoint x="680" y="1760" as="targetPoint" />
          </mxGeometry>
        </mxCell>
        <mxCell id="8rol1aNrI4AMiD5__3O6-137" value="&lt;b&gt;&lt;font style=&quot;font-size: 14px;&quot;&gt;shipping_method&lt;/font&gt;&lt;/b&gt;" style="text;html=1;align=center;verticalAlign=middle;whiteSpace=wrap;rounded=0;" vertex="1" parent="1">
          <mxGeometry x="680" y="1740" width="70" height="20" as="geometry" />
        </mxCell>
        <mxCell id="8rol1aNrI4AMiD5__3O6-138" value="method_id" style="text;html=1;align=center;verticalAlign=middle;whiteSpace=wrap;rounded=0;" vertex="1" parent="1">
          <mxGeometry x="690.1999999999999" y="1770" width="50" height="20" as="geometry" />
        </mxCell>
        <mxCell id="8rol1aNrI4AMiD5__3O6-139" value="&lt;font style=&quot;font-size: 12px;&quot;&gt;method_name&lt;/font&gt;" style="text;html=1;align=center;verticalAlign=middle;whiteSpace=wrap;rounded=0;" vertex="1" parent="1">
          <mxGeometry x="700.2" y="1800" width="50" height="20" as="geometry" />
        </mxCell>
        <mxCell id="8rol1aNrI4AMiD5__3O6-140" value="" style="image;sketch=0;aspect=fixed;html=1;points=[];align=center;fontSize=12;image=img/lib/mscae/Key.svg;" vertex="1" parent="1">
          <mxGeometry x="660" y="1770" width="12.4" height="20" as="geometry" />
        </mxCell>
        <mxCell id="8rol1aNrI4AMiD5__3O6-141" value="" style="endArrow=none;html=1;rounded=0;" edge="1" parent="1">
          <mxGeometry width="50" height="50" relative="1" as="geometry">
            <mxPoint x="650" y="1820" as="sourcePoint" />
            <mxPoint x="850" y="1820" as="targetPoint" />
            <Array as="points">
              <mxPoint x="850" y="1820" />
            </Array>
          </mxGeometry>
        </mxCell>
        <mxCell id="8rol1aNrI4AMiD5__3O6-143" value="cost" style="text;html=1;align=center;verticalAlign=middle;whiteSpace=wrap;rounded=0;" vertex="1" parent="1">
          <mxGeometry x="685" y="1828.92" width="25" height="21.64" as="geometry" />
        </mxCell>
        <mxCell id="8rol1aNrI4AMiD5__3O6-144" value="" style="rounded=0;whiteSpace=wrap;html=1;" vertex="1" parent="1">
          <mxGeometry x="-210" y="1331.3899999999999" width="200" height="90" as="geometry" />
        </mxCell>
        <mxCell id="8rol1aNrI4AMiD5__3O6-145" value="" style="endArrow=none;html=1;rounded=0;" edge="1" parent="1" target="8rol1aNrI4AMiD5__3O6-144">
          <mxGeometry width="50" height="50" relative="1" as="geometry">
            <mxPoint x="-210" y="1351.3899999999999" as="sourcePoint" />
            <mxPoint x="-160" y="1301.3899999999999" as="targetPoint" />
            <Array as="points">
              <mxPoint x="-10" y="1351.3899999999999" />
            </Array>
          </mxGeometry>
        </mxCell>
        <mxCell id="8rol1aNrI4AMiD5__3O6-146" value="" style="endArrow=none;html=1;rounded=0;" edge="1" parent="1">
          <mxGeometry width="50" height="50" relative="1" as="geometry">
            <mxPoint x="-210" y="1385.8899999999999" as="sourcePoint" />
            <mxPoint x="-10" y="1385.8899999999999" as="targetPoint" />
            <Array as="points">
              <mxPoint x="-10" y="1385.8899999999999" />
            </Array>
          </mxGeometry>
        </mxCell>
        <mxCell id="8rol1aNrI4AMiD5__3O6-147" value="" style="endArrow=none;html=1;rounded=0;exitX=0.146;exitY=1.038;exitDx=0;exitDy=0;exitPerimeter=0;" edge="1" parent="1" source="8rol1aNrI4AMiD5__3O6-144">
          <mxGeometry width="50" height="50" relative="1" as="geometry">
            <mxPoint x="-180" y="1411.3899999999999" as="sourcePoint" />
            <mxPoint x="-180" y="1351.3899999999999" as="targetPoint" />
          </mxGeometry>
        </mxCell>
        <mxCell id="8rol1aNrI4AMiD5__3O6-148" value="&lt;b&gt;&lt;font style=&quot;font-size: 14px;&quot;&gt;book_author&lt;/font&gt;&lt;/b&gt;" style="text;html=1;align=center;verticalAlign=middle;whiteSpace=wrap;rounded=0;" vertex="1" parent="1">
          <mxGeometry x="-190" y="1331.3899999999999" width="70" height="20" as="geometry" />
        </mxCell>
        <mxCell id="8rol1aNrI4AMiD5__3O6-149" value="book_id" style="text;html=1;align=center;verticalAlign=middle;whiteSpace=wrap;rounded=0;" vertex="1" parent="1">
          <mxGeometry x="-170" y="1361.3899999999999" width="50" height="20" as="geometry" />
        </mxCell>
        <mxCell id="8rol1aNrI4AMiD5__3O6-150" value="author_id" style="text;html=1;align=center;verticalAlign=middle;whiteSpace=wrap;rounded=0;" vertex="1" parent="1">
          <mxGeometry x="-167.60000000000002" y="1391.3899999999999" width="50" height="20" as="geometry" />
        </mxCell>
        <mxCell id="8rol1aNrI4AMiD5__3O6-151" value="" style="image;sketch=0;aspect=fixed;html=1;points=[];align=center;fontSize=12;image=img/lib/mscae/Key.svg;" vertex="1" parent="1">
          <mxGeometry x="-200" y="1361.3899999999999" width="12.4" height="20" as="geometry" />
        </mxCell>
        <mxCell id="8rol1aNrI4AMiD5__3O6-152" value="" style="image;sketch=0;aspect=fixed;html=1;points=[];align=center;fontSize=12;image=img/lib/mscae/Key.svg;" vertex="1" parent="1">
          <mxGeometry x="-200" y="1391.3899999999999" width="12.4" height="20" as="geometry" />
        </mxCell>
        <mxCell id="8rol1aNrI4AMiD5__3O6-163" value="" style="rounded=0;whiteSpace=wrap;html=1;" vertex="1" parent="1">
          <mxGeometry x="66.20000000000002" y="1740" width="200" height="90" as="geometry" />
        </mxCell>
        <mxCell id="8rol1aNrI4AMiD5__3O6-164" value="" style="endArrow=none;html=1;rounded=0;" edge="1" parent="1" target="8rol1aNrI4AMiD5__3O6-163">
          <mxGeometry width="50" height="50" relative="1" as="geometry">
            <mxPoint x="66.20000000000002" y="1760" as="sourcePoint" />
            <mxPoint x="116.20000000000002" y="1710" as="targetPoint" />
            <Array as="points">
              <mxPoint x="266.20000000000005" y="1760" />
            </Array>
          </mxGeometry>
        </mxCell>
        <mxCell id="8rol1aNrI4AMiD5__3O6-165" value="" style="endArrow=none;html=1;rounded=0;" edge="1" parent="1">
          <mxGeometry width="50" height="50" relative="1" as="geometry">
            <mxPoint x="66.20000000000002" y="1794.5" as="sourcePoint" />
            <mxPoint x="266.20000000000005" y="1794.5" as="targetPoint" />
            <Array as="points">
              <mxPoint x="266.20000000000005" y="1794.5" />
            </Array>
          </mxGeometry>
        </mxCell>
        <mxCell id="8rol1aNrI4AMiD5__3O6-166" value="" style="endArrow=none;html=1;rounded=0;exitX=0.146;exitY=1.038;exitDx=0;exitDy=0;exitPerimeter=0;" edge="1" parent="1" source="8rol1aNrI4AMiD5__3O6-163">
          <mxGeometry width="50" height="50" relative="1" as="geometry">
            <mxPoint x="96.20000000000002" y="1820" as="sourcePoint" />
            <mxPoint x="96.20000000000002" y="1760" as="targetPoint" />
          </mxGeometry>
        </mxCell>
        <mxCell id="8rol1aNrI4AMiD5__3O6-167" value="&lt;b&gt;&lt;font style=&quot;font-size: 14px;&quot;&gt;publisher&lt;/font&gt;&lt;/b&gt;" style="text;html=1;align=center;verticalAlign=middle;whiteSpace=wrap;rounded=0;" vertex="1" parent="1">
          <mxGeometry x="73.60000000000005" y="1740" width="70" height="20" as="geometry" />
        </mxCell>
        <mxCell id="8rol1aNrI4AMiD5__3O6-168" value="publisher_name" style="text;html=1;align=center;verticalAlign=middle;whiteSpace=wrap;rounded=0;" vertex="1" parent="1">
          <mxGeometry x="121.20000000000002" y="1800" width="50" height="20" as="geometry" />
        </mxCell>
        <mxCell id="8rol1aNrI4AMiD5__3O6-169" value="publisher_id" style="text;html=1;align=center;verticalAlign=middle;whiteSpace=wrap;rounded=0;" vertex="1" parent="1">
          <mxGeometry x="111.20000000000002" y="1770" width="50" height="20" as="geometry" />
        </mxCell>
        <mxCell id="8rol1aNrI4AMiD5__3O6-170" value="" style="image;sketch=0;aspect=fixed;html=1;points=[];align=center;fontSize=12;image=img/lib/mscae/Key.svg;" vertex="1" parent="1">
          <mxGeometry x="76.20000000000002" y="1770" width="12.4" height="20" as="geometry" />
        </mxCell>
        <mxCell id="8rol1aNrI4AMiD5__3O6-171" value="" style="rounded=0;whiteSpace=wrap;html=1;" vertex="1" parent="1">
          <mxGeometry x="75" y="1280" width="200" height="108.92" as="geometry" />
        </mxCell>
        <mxCell id="8rol1aNrI4AMiD5__3O6-172" value="" style="endArrow=none;html=1;rounded=0;" edge="1" parent="1" target="8rol1aNrI4AMiD5__3O6-171">
          <mxGeometry width="50" height="50" relative="1" as="geometry">
            <mxPoint x="75" y="1300" as="sourcePoint" />
            <mxPoint x="125" y="1250" as="targetPoint" />
            <Array as="points">
              <mxPoint x="275" y="1300" />
            </Array>
          </mxGeometry>
        </mxCell>
        <mxCell id="8rol1aNrI4AMiD5__3O6-173" value="" style="endArrow=none;html=1;rounded=0;" edge="1" parent="1">
          <mxGeometry width="50" height="50" relative="1" as="geometry">
            <mxPoint x="75" y="1334.5" as="sourcePoint" />
            <mxPoint x="275" y="1334.5" as="targetPoint" />
            <Array as="points">
              <mxPoint x="275" y="1334.5" />
            </Array>
          </mxGeometry>
        </mxCell>
        <mxCell id="8rol1aNrI4AMiD5__3O6-174" value="" style="endArrow=none;html=1;rounded=0;exitX=0.151;exitY=1.025;exitDx=0;exitDy=0;exitPerimeter=0;" edge="1" parent="1" source="8rol1aNrI4AMiD5__3O6-171">
          <mxGeometry width="50" height="50" relative="1" as="geometry">
            <mxPoint x="105" y="1360" as="sourcePoint" />
            <mxPoint x="105" y="1300" as="targetPoint" />
          </mxGeometry>
        </mxCell>
        <mxCell id="8rol1aNrI4AMiD5__3O6-175" value="&lt;b&gt;&lt;font style=&quot;font-size: 14px;&quot;&gt;book_language&lt;/font&gt;&lt;/b&gt;" style="text;html=1;align=center;verticalAlign=middle;whiteSpace=wrap;rounded=0;" vertex="1" parent="1">
          <mxGeometry x="104.99999999999997" y="1280" width="70" height="20" as="geometry" />
        </mxCell>
        <mxCell id="8rol1aNrI4AMiD5__3O6-176" value="language_id" style="text;html=1;align=center;verticalAlign=middle;whiteSpace=wrap;rounded=0;" vertex="1" parent="1">
          <mxGeometry x="122.6" y="1310" width="50" height="20" as="geometry" />
        </mxCell>
        <mxCell id="8rol1aNrI4AMiD5__3O6-177" value="&lt;font style=&quot;font-size: 12px;&quot;&gt;language_code&lt;/font&gt;" style="text;html=1;align=center;verticalAlign=middle;whiteSpace=wrap;rounded=0;" vertex="1" parent="1">
          <mxGeometry x="131.3" y="1340" width="50" height="20" as="geometry" />
        </mxCell>
        <mxCell id="8rol1aNrI4AMiD5__3O6-178" value="" style="image;sketch=0;aspect=fixed;html=1;points=[];align=center;fontSize=12;image=img/lib/mscae/Key.svg;" vertex="1" parent="1">
          <mxGeometry x="85" y="1310" width="12.4" height="20" as="geometry" />
        </mxCell>
        <mxCell id="8rol1aNrI4AMiD5__3O6-179" value="" style="endArrow=none;html=1;rounded=0;" edge="1" parent="1">
          <mxGeometry width="50" height="50" relative="1" as="geometry">
            <mxPoint x="75" y="1360" as="sourcePoint" />
            <mxPoint x="275" y="1360" as="targetPoint" />
            <Array as="points">
              <mxPoint x="275" y="1360" />
            </Array>
          </mxGeometry>
        </mxCell>
        <mxCell id="8rol1aNrI4AMiD5__3O6-180" value="language_name" style="text;html=1;align=center;verticalAlign=middle;whiteSpace=wrap;rounded=0;" vertex="1" parent="1">
          <mxGeometry x="143.8" y="1367.28" width="25" height="21.64" as="geometry" />
        </mxCell>
        <mxCell id="8rol1aNrI4AMiD5__3O6-182" value="" style="rounded=0;whiteSpace=wrap;html=1;" vertex="1" parent="1">
          <mxGeometry x="350" y="1367.2800000000002" width="197.6" height="154" as="geometry" />
        </mxCell>
        <mxCell id="8rol1aNrI4AMiD5__3O6-183" value="" style="endArrow=none;html=1;rounded=0;" edge="1" parent="1" target="8rol1aNrI4AMiD5__3O6-182">
          <mxGeometry width="50" height="50" relative="1" as="geometry">
            <mxPoint x="350" y="1387.2800000000002" as="sourcePoint" />
            <mxPoint x="400" y="1337.2800000000002" as="targetPoint" />
            <Array as="points">
              <mxPoint x="550" y="1387.2800000000002" />
            </Array>
          </mxGeometry>
        </mxCell>
        <mxCell id="8rol1aNrI4AMiD5__3O6-184" value="" style="endArrow=none;html=1;rounded=0;" edge="1" parent="1">
          <mxGeometry width="50" height="50" relative="1" as="geometry">
            <mxPoint x="350" y="1421.7800000000002" as="sourcePoint" />
            <mxPoint x="550" y="1421.7800000000002" as="targetPoint" />
            <Array as="points">
              <mxPoint x="550" y="1421.7800000000002" />
            </Array>
          </mxGeometry>
        </mxCell>
        <mxCell id="8rol1aNrI4AMiD5__3O6-185" value="" style="endArrow=none;html=1;rounded=0;" edge="1" parent="1">
          <mxGeometry width="50" height="50" relative="1" as="geometry">
            <mxPoint x="379.8" y="1526.2000000000003" as="sourcePoint" />
            <mxPoint x="380" y="1387.2800000000002" as="targetPoint" />
          </mxGeometry>
        </mxCell>
        <mxCell id="8rol1aNrI4AMiD5__3O6-186" value="&lt;div&gt;&lt;b style=&quot;background-color: initial;&quot;&gt;&lt;font style=&quot;font-size: 14px;&quot;&gt;order_line&lt;/font&gt;&lt;/b&gt;&lt;/div&gt;" style="text;html=1;align=center;verticalAlign=middle;whiteSpace=wrap;rounded=0;" vertex="1" parent="1">
          <mxGeometry x="371.19999999999993" y="1367.2800000000002" width="70" height="20" as="geometry" />
        </mxCell>
        <mxCell id="8rol1aNrI4AMiD5__3O6-187" value="line_id" style="text;html=1;align=center;verticalAlign=middle;whiteSpace=wrap;rounded=0;" vertex="1" parent="1">
          <mxGeometry x="387.6" y="1397.28" width="50" height="20" as="geometry" />
        </mxCell>
        <mxCell id="8rol1aNrI4AMiD5__3O6-188" value="&lt;font style=&quot;font-size: 12px;&quot;&gt;order_id&lt;/font&gt;" style="text;html=1;align=center;verticalAlign=middle;whiteSpace=wrap;rounded=0;" vertex="1" parent="1">
          <mxGeometry x="391.20000000000005" y="1434.2800000000002" width="50" height="20" as="geometry" />
        </mxCell>
        <mxCell id="8rol1aNrI4AMiD5__3O6-189" value="" style="image;sketch=0;aspect=fixed;html=1;points=[];align=center;fontSize=12;image=img/lib/mscae/Key.svg;" vertex="1" parent="1">
          <mxGeometry x="360" y="1397.2800000000002" width="12.4" height="20" as="geometry" />
        </mxCell>
        <mxCell id="8rol1aNrI4AMiD5__3O6-190" value="" style="endArrow=none;html=1;rounded=0;" edge="1" parent="1">
          <mxGeometry width="50" height="50" relative="1" as="geometry">
            <mxPoint x="350" y="1457.2800000000002" as="sourcePoint" />
            <mxPoint x="550" y="1457.2800000000002" as="targetPoint" />
            <Array as="points">
              <mxPoint x="550" y="1457.2800000000002" />
            </Array>
          </mxGeometry>
        </mxCell>
        <mxCell id="8rol1aNrI4AMiD5__3O6-191" value="book_id" style="text;html=1;align=center;verticalAlign=middle;whiteSpace=wrap;rounded=0;" vertex="1" parent="1">
          <mxGeometry x="387.6" y="1467.2800000000002" width="50" height="20" as="geometry" />
        </mxCell>
        <mxCell id="8rol1aNrI4AMiD5__3O6-192" value="" style="endArrow=none;html=1;rounded=0;" edge="1" parent="1">
          <mxGeometry width="50" height="50" relative="1" as="geometry">
            <mxPoint x="350" y="1487.2800000000002" as="sourcePoint" />
            <mxPoint x="550" y="1487.2800000000002" as="targetPoint" />
            <Array as="points">
              <mxPoint x="550" y="1487.2800000000002" />
            </Array>
          </mxGeometry>
        </mxCell>
        <mxCell id="8rol1aNrI4AMiD5__3O6-193" value="price" style="text;html=1;align=center;verticalAlign=middle;whiteSpace=wrap;rounded=0;" vertex="1" parent="1">
          <mxGeometry x="392.6000000000001" y="1501.2800000000002" width="30" height="20" as="geometry" />
        </mxCell>
        <mxCell id="8rol1aNrI4AMiD5__3O6-196" value="" style="rounded=0;whiteSpace=wrap;html=1;" vertex="1" parent="1">
          <mxGeometry x="75" y="1431.75" width="197.6" height="248.25" as="geometry" />
        </mxCell>
        <mxCell id="8rol1aNrI4AMiD5__3O6-197" value="" style="endArrow=none;html=1;rounded=0;" edge="1" parent="1" target="8rol1aNrI4AMiD5__3O6-196">
          <mxGeometry width="50" height="50" relative="1" as="geometry">
            <mxPoint x="75" y="1451.75" as="sourcePoint" />
            <mxPoint x="125" y="1401.75" as="targetPoint" />
            <Array as="points">
              <mxPoint x="275" y="1451.75" />
            </Array>
          </mxGeometry>
        </mxCell>
        <mxCell id="8rol1aNrI4AMiD5__3O6-198" value="" style="endArrow=none;html=1;rounded=0;" edge="1" parent="1">
          <mxGeometry width="50" height="50" relative="1" as="geometry">
            <mxPoint x="75" y="1486.25" as="sourcePoint" />
            <mxPoint x="275" y="1486.25" as="targetPoint" />
            <Array as="points">
              <mxPoint x="275" y="1486.25" />
            </Array>
          </mxGeometry>
        </mxCell>
        <mxCell id="8rol1aNrI4AMiD5__3O6-199" value="" style="endArrow=none;html=1;rounded=0;exitX=0.151;exitY=1.025;exitDx=0;exitDy=0;exitPerimeter=0;" edge="1" parent="1" source="8rol1aNrI4AMiD5__3O6-196">
          <mxGeometry width="50" height="50" relative="1" as="geometry">
            <mxPoint x="105" y="1511.75" as="sourcePoint" />
            <mxPoint x="105" y="1451.75" as="targetPoint" />
          </mxGeometry>
        </mxCell>
        <mxCell id="8rol1aNrI4AMiD5__3O6-200" value="&lt;div&gt;&lt;b style=&quot;background-color: initial;&quot;&gt;&lt;font style=&quot;font-size: 14px;&quot;&gt;book&lt;/font&gt;&lt;/b&gt;&lt;/div&gt;" style="text;html=1;align=center;verticalAlign=middle;whiteSpace=wrap;rounded=0;" vertex="1" parent="1">
          <mxGeometry x="82.59999999999997" y="1431.75" width="70" height="20" as="geometry" />
        </mxCell>
        <mxCell id="8rol1aNrI4AMiD5__3O6-201" value="book_id" style="text;html=1;align=center;verticalAlign=middle;whiteSpace=wrap;rounded=0;" vertex="1" parent="1">
          <mxGeometry x="117.00000000000003" y="1460" width="50" height="20" as="geometry" />
        </mxCell>
        <mxCell id="8rol1aNrI4AMiD5__3O6-202" value="&lt;font style=&quot;font-size: 12px;&quot;&gt;title&lt;/font&gt;" style="text;html=1;align=center;verticalAlign=middle;whiteSpace=wrap;rounded=0;" vertex="1" parent="1">
          <mxGeometry x="112.4" y="1500" width="35" height="16" as="geometry" />
        </mxCell>
        <mxCell id="8rol1aNrI4AMiD5__3O6-203" value="" style="image;sketch=0;aspect=fixed;html=1;points=[];align=center;fontSize=12;image=img/lib/mscae/Key.svg;" vertex="1" parent="1">
          <mxGeometry x="85" y="1461.75" width="12.4" height="20" as="geometry" />
        </mxCell>
        <mxCell id="8rol1aNrI4AMiD5__3O6-204" value="" style="endArrow=none;html=1;rounded=0;" edge="1" parent="1">
          <mxGeometry width="50" height="50" relative="1" as="geometry">
            <mxPoint x="75" y="1521.75" as="sourcePoint" />
            <mxPoint x="275" y="1521.75" as="targetPoint" />
            <Array as="points">
              <mxPoint x="275" y="1521.75" />
            </Array>
          </mxGeometry>
        </mxCell>
        <mxCell id="8rol1aNrI4AMiD5__3O6-205" value="isbn13" style="text;html=1;align=center;verticalAlign=middle;whiteSpace=wrap;rounded=0;" vertex="1" parent="1">
          <mxGeometry x="112.6" y="1534" width="41.2" height="20" as="geometry" />
        </mxCell>
        <mxCell id="8rol1aNrI4AMiD5__3O6-206" value="" style="endArrow=none;html=1;rounded=0;" edge="1" parent="1">
          <mxGeometry width="50" height="50" relative="1" as="geometry">
            <mxPoint x="75" y="1551.75" as="sourcePoint" />
            <mxPoint x="275" y="1551.75" as="targetPoint" />
            <Array as="points">
              <mxPoint x="275" y="1551.75" />
            </Array>
          </mxGeometry>
        </mxCell>
        <mxCell id="8rol1aNrI4AMiD5__3O6-207" value="" style="endArrow=none;html=1;rounded=0;" edge="1" parent="1">
          <mxGeometry width="50" height="50" relative="1" as="geometry">
            <mxPoint x="75" y="1581.75" as="sourcePoint" />
            <mxPoint x="275" y="1581.75" as="targetPoint" />
            <Array as="points">
              <mxPoint x="275" y="1581.75" />
            </Array>
          </mxGeometry>
        </mxCell>
        <mxCell id="8rol1aNrI4AMiD5__3O6-208" value="language_id" style="text;html=1;align=center;verticalAlign=middle;whiteSpace=wrap;rounded=0;" vertex="1" parent="1">
          <mxGeometry x="132.6" y="1560" width="30" height="20" as="geometry" />
        </mxCell>
        <mxCell id="8rol1aNrI4AMiD5__3O6-209" value="num_pages" style="text;html=1;align=center;verticalAlign=middle;whiteSpace=wrap;rounded=0;" vertex="1" parent="1">
          <mxGeometry x="122.6" y="1591.75" width="50" height="20" as="geometry" />
        </mxCell>
        <mxCell id="8rol1aNrI4AMiD5__3O6-210" value="" style="endArrow=none;html=1;rounded=0;" edge="1" parent="1">
          <mxGeometry width="50" height="50" relative="1" as="geometry">
            <mxPoint x="75" y="1620" as="sourcePoint" />
            <mxPoint x="275" y="1620" as="targetPoint" />
            <Array as="points">
              <mxPoint x="275" y="1620" />
            </Array>
          </mxGeometry>
        </mxCell>
        <mxCell id="8rol1aNrI4AMiD5__3O6-211" value="" style="endArrow=none;html=1;rounded=0;" edge="1" parent="1">
          <mxGeometry width="50" height="50" relative="1" as="geometry">
            <mxPoint x="72.4" y="1650" as="sourcePoint" />
            <mxPoint x="272.4" y="1650" as="targetPoint" />
            <Array as="points">
              <mxPoint x="272.4" y="1650" />
            </Array>
          </mxGeometry>
        </mxCell>
        <mxCell id="8rol1aNrI4AMiD5__3O6-212" value="publication_date" style="text;html=1;align=center;verticalAlign=middle;whiteSpace=wrap;rounded=0;" vertex="1" parent="1">
          <mxGeometry x="132.6" y="1630" width="50" height="20" as="geometry" />
        </mxCell>
        <mxCell id="8rol1aNrI4AMiD5__3O6-213" value="publisher_id" style="text;html=1;align=center;verticalAlign=middle;whiteSpace=wrap;rounded=0;" vertex="1" parent="1">
          <mxGeometry x="122.6" y="1660" width="50" height="20" as="geometry" />
        </mxCell>
        <mxCell id="8rol1aNrI4AMiD5__3O6-214" value="" style="rounded=0;whiteSpace=wrap;html=1;" vertex="1" parent="1">
          <mxGeometry x="-220" y="1500" width="200" height="90" as="geometry" />
        </mxCell>
        <mxCell id="8rol1aNrI4AMiD5__3O6-215" value="" style="endArrow=none;html=1;rounded=0;" edge="1" parent="1" target="8rol1aNrI4AMiD5__3O6-214">
          <mxGeometry width="50" height="50" relative="1" as="geometry">
            <mxPoint x="-219.99999999999997" y="1520" as="sourcePoint" />
            <mxPoint x="-169.99999999999997" y="1470" as="targetPoint" />
            <Array as="points">
              <mxPoint x="-20" y="1520" />
            </Array>
          </mxGeometry>
        </mxCell>
        <mxCell id="8rol1aNrI4AMiD5__3O6-216" value="" style="endArrow=none;html=1;rounded=0;" edge="1" parent="1">
          <mxGeometry width="50" height="50" relative="1" as="geometry">
            <mxPoint x="-219.99999999999997" y="1554.5" as="sourcePoint" />
            <mxPoint x="-20" y="1554.5" as="targetPoint" />
            <Array as="points">
              <mxPoint x="-20" y="1554.5" />
            </Array>
          </mxGeometry>
        </mxCell>
        <mxCell id="8rol1aNrI4AMiD5__3O6-217" value="" style="endArrow=none;html=1;rounded=0;exitX=0.146;exitY=1.038;exitDx=0;exitDy=0;exitPerimeter=0;" edge="1" parent="1" source="8rol1aNrI4AMiD5__3O6-214">
          <mxGeometry width="50" height="50" relative="1" as="geometry">
            <mxPoint x="-189.99999999999997" y="1580" as="sourcePoint" />
            <mxPoint x="-189.99999999999997" y="1520" as="targetPoint" />
          </mxGeometry>
        </mxCell>
        <mxCell id="8rol1aNrI4AMiD5__3O6-218" value="&lt;b&gt;&lt;font style=&quot;font-size: 14px;&quot;&gt;author&lt;/font&gt;&lt;/b&gt;" style="text;html=1;align=center;verticalAlign=middle;whiteSpace=wrap;rounded=0;" vertex="1" parent="1">
          <mxGeometry x="-217.39999999999998" y="1500" width="70" height="20" as="geometry" />
        </mxCell>
        <mxCell id="8rol1aNrI4AMiD5__3O6-219" value="author_name" style="text;html=1;align=center;verticalAlign=middle;whiteSpace=wrap;rounded=0;" vertex="1" parent="1">
          <mxGeometry x="-169.99999999999997" y="1560" width="50" height="20" as="geometry" />
        </mxCell>
        <mxCell id="8rol1aNrI4AMiD5__3O6-220" value="author_id" style="text;html=1;align=center;verticalAlign=middle;whiteSpace=wrap;rounded=0;" vertex="1" parent="1">
          <mxGeometry x="-180" y="1530" width="50" height="20" as="geometry" />
        </mxCell>
        <mxCell id="8rol1aNrI4AMiD5__3O6-221" value="" style="image;sketch=0;aspect=fixed;html=1;points=[];align=center;fontSize=12;image=img/lib/mscae/Key.svg;" vertex="1" parent="1">
          <mxGeometry x="-209.99999999999997" y="1530" width="12.4" height="20" as="geometry" />
        </mxCell>
        <mxCell id="8rol1aNrI4AMiD5__3O6-224" value="" style="endArrow=classic;html=1;rounded=0;entryX=0.006;entryY=0.161;entryDx=0;entryDy=0;entryPerimeter=0;" edge="1" parent="1" target="8rol1aNrI4AMiD5__3O6-196">
          <mxGeometry width="50" height="50" relative="1" as="geometry">
            <mxPoint x="-210" y="1375" as="sourcePoint" />
            <mxPoint x="-160" y="1325" as="targetPoint" />
            <Array as="points">
              <mxPoint x="-230" y="1375" />
              <mxPoint x="-230" y="1472" />
            </Array>
          </mxGeometry>
        </mxCell>
        <mxCell id="8rol1aNrI4AMiD5__3O6-225" value="" style="endArrow=classic;html=1;rounded=0;entryX=0;entryY=0.5;entryDx=0;entryDy=0;" edge="1" parent="1" target="8rol1aNrI4AMiD5__3O6-214">
          <mxGeometry width="50" height="50" relative="1" as="geometry">
            <mxPoint x="-211" y="1403" as="sourcePoint" />
            <mxPoint x="75" y="1500" as="targetPoint" />
            <Array as="points">
              <mxPoint x="-260" y="1403" />
              <mxPoint x="-260" y="1545" />
            </Array>
          </mxGeometry>
        </mxCell>
        <mxCell id="8rol1aNrI4AMiD5__3O6-226" value="" style="endArrow=classic;html=1;rounded=0;" edge="1" parent="1">
          <mxGeometry width="50" height="50" relative="1" as="geometry">
            <mxPoint x="350" y="1474" as="sourcePoint" />
            <mxPoint x="270" y="1474" as="targetPoint" />
          </mxGeometry>
        </mxCell>
        <mxCell id="8rol1aNrI4AMiD5__3O6-228" value="" style="endArrow=classic;html=1;rounded=0;entryX=-0.002;entryY=0.422;entryDx=0;entryDy=0;entryPerimeter=0;" edge="1" parent="1" target="8rol1aNrI4AMiD5__3O6-163">
          <mxGeometry width="50" height="50" relative="1" as="geometry">
            <mxPoint x="73.6" y="1670" as="sourcePoint" />
            <mxPoint x="123.6" y="1620" as="targetPoint" />
            <Array as="points">
              <mxPoint x="50" y="1670" />
              <mxPoint x="50" y="1780" />
            </Array>
          </mxGeometry>
        </mxCell>
        <mxCell id="8rol1aNrI4AMiD5__3O6-229" value="" style="endArrow=classic;html=1;rounded=0;entryX=0.002;entryY=0.312;entryDx=0;entryDy=0;entryPerimeter=0;" edge="1" parent="1" target="8rol1aNrI4AMiD5__3O6-171">
          <mxGeometry width="50" height="50" relative="1" as="geometry">
            <mxPoint x="73.6" y="1569" as="sourcePoint" />
            <mxPoint x="123.6" y="1519" as="targetPoint" />
            <Array as="points">
              <mxPoint x="30" y="1570" />
              <mxPoint x="30" y="1314" />
            </Array>
          </mxGeometry>
        </mxCell>
        <mxCell id="8rol1aNrI4AMiD5__3O6-230" value="" style="endArrow=classic;html=1;rounded=0;entryX=0;entryY=0.25;entryDx=0;entryDy=0;" edge="1" parent="1" target="8rol1aNrI4AMiD5__3O6-118">
          <mxGeometry width="50" height="50" relative="1" as="geometry">
            <mxPoint x="547.6" y="1461.75" as="sourcePoint" />
            <mxPoint x="597.6" y="1411.75" as="targetPoint" />
            <Array as="points">
              <mxPoint x="590" y="1462" />
              <mxPoint x="590" y="1527" />
            </Array>
          </mxGeometry>
        </mxCell>
        <mxCell id="8rol1aNrI4AMiD5__3O6-231" value="" style="endArrow=classic;html=1;rounded=0;entryX=-0.009;entryY=0.364;entryDx=0;entryDy=0;entryPerimeter=0;" edge="1" parent="1" target="8rol1aNrI4AMiD5__3O6-133">
          <mxGeometry width="50" height="50" relative="1" as="geometry">
            <mxPoint x="670" y="1616.75" as="sourcePoint" />
            <mxPoint x="720" y="1566.75" as="targetPoint" />
            <Array as="points">
              <mxPoint x="630" y="1617" />
              <mxPoint x="630" y="1780" />
            </Array>
          </mxGeometry>
        </mxCell>
        <mxCell id="8rol1aNrI4AMiD5__3O6-232" value="" style="endArrow=classic;html=1;rounded=0;entryX=0.987;entryY=0.215;entryDx=0;entryDy=0;entryPerimeter=0;" edge="1" parent="1" target="8rol1aNrI4AMiD5__3O6-118">
          <mxGeometry width="50" height="50" relative="1" as="geometry">
            <mxPoint x="930" y="1695" as="sourcePoint" />
            <mxPoint x="980" y="1645" as="targetPoint" />
            <Array as="points">
              <mxPoint x="900" y="1695" />
              <mxPoint x="900" y="1520" />
            </Array>
          </mxGeometry>
        </mxCell>
        <mxCell id="8rol1aNrI4AMiD5__3O6-233" value="" style="endArrow=classic;html=1;rounded=0;entryX=1.007;entryY=0.413;entryDx=0;entryDy=0;entryPerimeter=0;" edge="1" parent="1" target="8rol1aNrI4AMiD5__3O6-98">
          <mxGeometry width="50" height="50" relative="1" as="geometry">
            <mxPoint x="1130" y="1720" as="sourcePoint" />
            <mxPoint x="1180" y="1675.75" as="targetPoint" />
            <Array as="points">
              <mxPoint x="1170" y="1720" />
              <mxPoint x="1170" y="1450" />
            </Array>
          </mxGeometry>
        </mxCell>
        <mxCell id="8rol1aNrI4AMiD5__3O6-234" value="" style="endArrow=classic;html=1;rounded=0;" edge="1" parent="1">
          <mxGeometry width="50" height="50" relative="1" as="geometry">
            <mxPoint x="477.4" y="971" as="sourcePoint" />
            <mxPoint x="561.2" y="1120.5" as="targetPoint" />
            <Array as="points">
              <mxPoint x="461.2" y="970.5" />
              <mxPoint x="461.2" y="1120.5" />
            </Array>
          </mxGeometry>
        </mxCell>
        <mxCell id="8rol1aNrI4AMiD5__3O6-235" value="" style="endArrow=classic;html=1;rounded=0;entryX=0.004;entryY=0.205;entryDx=0;entryDy=0;entryPerimeter=0;" edge="1" parent="1" target="8rol1aNrI4AMiD5__3O6-19">
          <mxGeometry width="50" height="50" relative="1" as="geometry">
            <mxPoint x="476.2" y="1015.5" as="sourcePoint" />
            <mxPoint x="526.2" y="965.5" as="targetPoint" />
            <Array as="points">
              <mxPoint x="430" y="1016" />
              <mxPoint x="430" y="920" />
              <mxPoint x="700" y="920" />
              <mxPoint x="700" y="1070" />
              <mxPoint x="810" y="1070" />
              <mxPoint x="810" y="1132" />
            </Array>
          </mxGeometry>
        </mxCell>
        <mxCell id="8rol1aNrI4AMiD5__3O6-236" value="" style="endArrow=classic;html=1;rounded=0;" edge="1" parent="1">
          <mxGeometry width="50" height="50" relative="1" as="geometry">
            <mxPoint x="473.80000000000007" y="1055.5" as="sourcePoint" />
            <mxPoint x="240" y="1150" as="targetPoint" />
            <Array as="points">
              <mxPoint x="220" y="1056" />
              <mxPoint x="220" y="1150" />
            </Array>
          </mxGeometry>
        </mxCell>
        <mxCell id="8rol1aNrI4AMiD5__3O6-237" value="" style="endArrow=classic;html=1;rounded=0;entryX=0.996;entryY=0.411;entryDx=0;entryDy=0;entryPerimeter=0;" edge="1" parent="1" target="8rol1aNrI4AMiD5__3O6-1">
          <mxGeometry width="50" height="50" relative="1" as="geometry">
            <mxPoint x="1053.8" y="1261.5" as="sourcePoint" />
            <mxPoint x="1103.8" y="1211.5" as="targetPoint" />
            <Array as="points">
              <mxPoint x="1100" y="1260" />
              <mxPoint x="1100" y="948" />
            </Array>
          </mxGeometry>
        </mxCell>
        <mxCell id="8rol1aNrI4AMiD5__3O6-238" value="" style="endArrow=classic;html=1;rounded=0;entryX=0.007;entryY=0.297;entryDx=0;entryDy=0;entryPerimeter=0;" edge="1" parent="1" target="8rol1aNrI4AMiD5__3O6-83">
          <mxGeometry width="50" height="50" relative="1" as="geometry">
            <mxPoint x="670" y="1591.75" as="sourcePoint" />
            <mxPoint x="720" y="1541.75" as="targetPoint" />
            <Array as="points">
              <mxPoint x="640" y="1592" />
              <mxPoint x="640" y="1320" />
              <mxPoint x="520" y="1320" />
              <mxPoint x="520" y="1137" />
            </Array>
          </mxGeometry>
        </mxCell>
        <mxCell id="8rol1aNrI4AMiD5__3O6-239" value="" style="endArrow=classic;html=1;rounded=0;entryX=0;entryY=0.25;entryDx=0;entryDy=0;" edge="1" parent="1" target="8rol1aNrI4AMiD5__3O6-19">
          <mxGeometry width="50" height="50" relative="1" as="geometry">
            <mxPoint x="867.6" y="1651.75" as="sourcePoint" />
            <mxPoint x="917.6" y="1601.75" as="targetPoint" />
            <Array as="points">
              <mxPoint x="890" y="1652" />
              <mxPoint x="890" y="1350" />
              <mxPoint x="830" y="1350" />
              <mxPoint x="830" y="1141" />
            </Array>
          </mxGeometry>
        </mxCell>
      </root>
    </mxGraphModel>
  </diagram>
</mxfile>
